<svg width="12" height="12" viewBox="0 0 12 12" fill="none" xmlns="http://www.w3.org/2000/svg">
<path d="M11.1622 0.326067C11.0301 0.329186 10.9047 0.384421 10.8132 0.479713L6.00008 5.29286L1.18693 0.479713C1.14032 0.431718 1.08456 0.393562 1.02294 0.367506C0.961323 0.34145 0.895103 0.328023 0.828203 0.32802C0.728696 0.328045 0.631458 0.357756 0.548932 0.413354C0.466406 0.468952 0.402343 0.547907 0.364942 0.640117C0.32754 0.732328 0.3185 0.833601 0.338978 0.930978C0.359456 1.02836 0.408521 1.11741 0.479896 1.18674L5.29305 5.9999L0.479896 10.813C0.43191 10.8591 0.393599 10.9143 0.367208 10.9754C0.340816 11.0364 0.326874 11.1021 0.326198 11.1687C0.325521 11.2352 0.338125 11.3012 0.363269 11.3628C0.388414 11.4243 0.425594 11.4803 0.472633 11.5273C0.519672 11.5744 0.575624 11.6116 0.637212 11.6367C0.6988 11.6618 0.764786 11.6745 0.831306 11.6738C0.897825 11.6731 0.963542 11.6592 1.02461 11.6328C1.08567 11.6064 1.14085 11.5681 1.18693 11.5201L6.00008 6.70693L10.8132 11.5201C10.8593 11.5681 10.9145 11.6064 10.9756 11.6328C11.0366 11.6592 11.1023 11.6731 11.1688 11.6738C11.2354 11.6745 11.3014 11.6618 11.3629 11.6367C11.4245 11.6116 11.4805 11.5744 11.5275 11.5273C11.5746 11.4803 11.6117 11.4243 11.6369 11.3628C11.662 11.3012 11.6746 11.2352 11.674 11.1687C11.6733 11.1021 11.6593 11.0364 11.6329 10.9754C11.6066 10.9143 11.5682 10.8591 11.5203 10.813L6.70711 5.9999L11.5203 1.18674C11.593 1.11696 11.6429 1.02683 11.6635 0.928177C11.6841 0.829523 11.6744 0.726948 11.6357 0.633899C11.597 0.54085 11.531 0.461669 11.4466 0.406737C11.3621 0.351806 11.2629 0.323687 11.1622 0.326067Z" fill="#1D4F74"/>
</svg>
