<svg width="16" height="16" viewBox="0 0 16 16" fill="none" xmlns="http://www.w3.org/2000/svg">
<path d="M7.99999 1.33325C6.16496 1.33325 4.66666 2.83156 4.66666 4.66658C4.66666 6.50161 6.16496 7.99992 7.99999 7.99992C9.83502 7.99992 11.3333 6.50161 11.3333 4.66658C11.3333 2.83156 9.83502 1.33325 7.99999 1.33325ZM7.99999 2.33325C9.29458 2.33325 10.3333 3.372 10.3333 4.66658C10.3333 5.96117 9.29458 6.99992 7.99999 6.99992C6.7054 6.99992 5.66666 5.96117 5.66666 4.66658C5.66666 3.372 6.7054 2.33325 7.99999 2.33325ZM3.99283 9.33325C3.26622 9.33325 2.66666 9.93282 2.66666 10.6594V11.1666C2.66666 12.368 3.42641 13.2973 4.43554 13.8541C5.44466 14.4108 6.72269 14.6666 7.99999 14.6666C9.27729 14.6666 10.5553 14.4108 11.5644 13.8541C12.4249 13.3794 13.0724 12.6208 13.2539 11.6666H13.334V10.6594C13.334 9.93282 12.7338 9.33325 12.0072 9.33325H3.99283ZM3.99283 10.3333H12.0072C12.1932 10.3333 12.334 10.4734 12.334 10.6594V10.6666H12.3333V11.1666C12.3333 11.9652 11.8847 12.5358 11.0814 12.9791C10.278 13.4223 9.13936 13.6666 7.99999 13.6666C6.86062 13.6666 5.72199 13.4223 4.91861 12.9791C4.11523 12.5358 3.66666 11.9652 3.66666 11.1666V10.6594C3.66666 10.4734 3.80676 10.3333 3.99283 10.3333Z" fill="#1D4F74"/>
</svg>
