<svg width="16" height="9" viewBox="0 0 16 9" fill="none" xmlns="http://www.w3.org/2000/svg">
<path d="M7.99275 8.16694C7.86264 8.16504 7.73839 8.11249 7.6464 8.02046L1.1464 1.52046C1.09841 1.47438 1.0601 1.4192 1.03371 1.35814C1.00732 1.29707 0.993378 1.23136 0.992702 1.16484C0.992025 1.09832 1.00463 1.03233 1.02977 0.970743C1.05492 0.909155 1.0921 0.853203 1.13914 0.806164C1.18618 0.759125 1.24213 0.721944 1.30372 0.696799C1.3653 0.671655 1.43129 0.659052 1.49781 0.659728C1.56433 0.660404 1.63005 0.674347 1.69111 0.700738C1.75217 0.72713 1.80736 0.76544 1.85343 0.813426L7.99992 6.95991L14.1464 0.813426C14.1925 0.76544 14.2477 0.72713 14.3087 0.700738C14.3698 0.674347 14.4355 0.660406 14.502 0.659729C14.5685 0.659053 14.6345 0.671656 14.6961 0.696801C14.7577 0.721945 14.8137 0.759125 14.8607 0.806164C14.9077 0.853203 14.9449 0.909155 14.9701 0.970743C14.9952 1.03233 15.0078 1.09832 15.0071 1.16484C15.0065 1.23136 14.9925 1.29707 14.9661 1.35814C14.9397 1.4192 14.9014 1.47438 14.8534 1.52046L8.35343 8.02046C8.30616 8.06775 8.24988 8.10508 8.18793 8.13024C8.12598 8.1554 8.05961 8.16788 7.99275 8.16694Z" fill="#1D4F74"/>
</svg>
