<svg width="15" height="15" viewBox="0 0 15 15" fill="none" xmlns="http://www.w3.org/2000/svg">
<path d="M9.22362 0.932617C9.31691 0.93264 9.40807 0.960495 9.48544 1.01262C9.56281 1.06474 9.62286 1.13876 9.65793 1.22521C9.69299 1.31166 9.70147 1.4066 9.68227 1.49789C9.66307 1.58918 9.61707 1.67267 9.55016 1.73767L3.78783 7.5L9.55016 13.2623C9.59515 13.3055 9.63106 13.3573 9.6558 13.4145C9.68055 13.4718 9.69362 13.5334 9.69425 13.5957C9.69488 13.6581 9.68307 13.7199 9.6595 13.7777C9.63592 13.8354 9.60107 13.8879 9.55697 13.932C9.51287 13.9761 9.46041 14.0109 9.40267 14.0345C9.34494 14.0581 9.28307 14.0699 9.22071 14.0693C9.15835 14.0686 9.09674 14.0556 9.03949 14.0308C8.98225 14.0061 8.93051 13.9702 8.88732 13.9252L2.79357 7.83142C2.70569 7.74351 2.65633 7.6243 2.65633 7.5C2.65633 7.3757 2.70569 7.25649 2.79357 7.16858L8.88732 1.07483C8.93101 1.02983 8.98329 0.994063 9.04105 0.969635C9.09882 0.945207 9.1609 0.93262 9.22362 0.932617Z" fill="#1D4F74"/>
</svg>
