<svg width="14" height="15" viewBox="0 0 14 15" fill="none" xmlns="http://www.w3.org/2000/svg">
<path d="M6.66675 0.666992C5.12851 0.666992 3.85331 1.83835 3.68628 3.33366H3.00008C2.22942 3.33366 1.5879 3.91139 1.5079 4.67806L0.674563 12.6781C0.630563 13.0997 0.768167 13.5225 1.05217 13.8382C1.33617 14.1532 1.74275 14.3337 2.16675 14.3337H11.8334C12.2574 14.3337 12.664 14.1532 12.948 13.8382C13.232 13.5229 13.369 13.0997 13.325 12.6781L12.4923 4.67806C12.4123 3.91139 11.7707 3.33366 11.0001 3.33366H10.3178C10.3281 3.44366 10.3334 3.55499 10.3334 3.66699V4.33366H11.0001C11.2571 4.33366 11.4708 4.52656 11.4975 4.78223L12.3308 12.7822C12.3455 12.9229 12.2995 13.0636 12.2052 13.1683C12.1105 13.2733 11.9747 13.3337 11.8334 13.3337H2.16675C2.02542 13.3337 1.88999 13.2736 1.79566 13.1689C1.70099 13.0639 1.65469 12.9229 1.66935 12.7822L2.50269 4.78223C2.52935 4.52656 2.74308 4.33366 3.00008 4.33366H3.66675V5.50033C3.66581 5.56658 3.67805 5.63236 3.70276 5.69385C3.72747 5.75533 3.76415 5.81129 3.81067 5.85848C3.85719 5.90566 3.91263 5.94313 3.97376 5.9687C4.03489 5.99428 4.10049 6.00745 4.16675 6.00745C4.23301 6.00745 4.29861 5.99428 4.35974 5.9687C4.42087 5.94313 4.47631 5.90566 4.52283 5.85848C4.56935 5.81129 4.60603 5.75533 4.63074 5.69385C4.65545 5.63236 4.66769 5.56658 4.66675 5.50033V3.66699C4.66675 2.55657 5.55632 1.66699 6.66675 1.66699C7.66334 1.66699 8.48006 2.38402 8.63745 3.33366H5.37769C5.34969 3.44033 5.33342 3.55166 5.33342 3.66699V4.33366H8.66675V5.50033C8.66581 5.56658 8.67805 5.63236 8.70276 5.69385C8.72747 5.75533 8.76415 5.81129 8.81067 5.85848C8.85719 5.90566 8.91263 5.94313 8.97376 5.9687C9.03489 5.99428 9.10049 6.00745 9.16675 6.00745C9.23301 6.00745 9.29861 5.99428 9.35974 5.9687C9.42087 5.94313 9.47631 5.90566 9.52283 5.85848C9.56935 5.81129 9.60603 5.75533 9.63074 5.69385C9.65545 5.63236 9.66769 5.56658 9.66675 5.50033V3.66699C9.66675 2.01609 8.31766 0.666992 6.66675 0.666992Z" fill="white"/>
</svg>
