<svg width="16" height="16" viewBox="0 0 16 16" fill="none" xmlns="http://www.w3.org/2000/svg">
<path d="M6.347 1.33795C6.12758 1.32198 5.90276 1.34441 5.68229 1.40956L4.89323 1.64329C4.05241 1.89196 3.39545 2.55908 3.17318 3.4011C2.67965 5.27368 3.24422 7.49015 4.71354 9.98508C6.18079 12.4766 7.85267 14.06 9.74088 14.5769C10.5912 14.8096 11.5083 14.5873 12.1523 13.989L12.7526 13.4323C13.4243 12.8087 13.5244 11.77 12.9818 11.032L12.1146 9.85422C11.6497 9.22284 10.8303 8.95403 10.0768 9.1804L8.72005 9.58665C8.6631 9.60328 8.52681 9.52571 8.4082 9.42323L8.40755 9.42258C8.1963 9.2389 7.90362 8.86763 7.59049 8.33665V8.33599C7.25474 7.76576 7.11153 7.39282 7.05404 7.17258C6.99651 6.95225 7.01047 6.92545 7.01888 6.85097C7.02325 6.81381 7.04091 6.77937 7.07096 6.75201L7.07161 6.75136L8.08333 5.82623C8.66296 5.29635 8.83795 4.44956 8.51107 3.73704L7.90104 2.40631V2.40566C7.61384 1.77962 7.00509 1.38582 6.347 1.33795ZM6.27474 2.33534C6.5808 2.35821 6.86264 2.5418 6.99154 2.82297L7.60221 4.1537C7.75 4.47584 7.67589 4.84448 7.40885 5.0886L6.39713 6.01308C6.18973 6.20219 6.0571 6.46002 6.02539 6.73834V6.73899C6.01713 6.81218 5.99761 7.08436 6.08659 7.42519C6.17557 7.76602 6.35927 8.21683 6.72851 8.84381H6.72917C7.07369 9.42814 7.39931 9.87207 7.75195 10.1784H7.7526C7.86712 10.2776 8.34709 10.7376 9 10.5469L9.00195 10.5463L10.3646 10.1381C10.7184 10.0318 11.0968 10.1587 11.3092 10.4473L12.1764 11.6251C12.422 11.9596 12.3791 12.4144 12.0723 12.6993L11.472 13.2566C11.0881 13.6133 10.5181 13.7526 10.0046 13.612C8.4781 13.1942 6.9676 11.8418 5.57552 9.47792C4.1815 7.11085 3.7455 5.15306 4.13997 3.65631C4.27037 3.16232 4.6699 2.75227 5.17708 2.60227L5.96549 2.36855C6.0682 2.3382 6.17272 2.32772 6.27474 2.33534Z" fill="#1D4F74"/>
</svg>
