<svg width="16" height="11" viewBox="0 0 16 11" fill="none" xmlns="http://www.w3.org/2000/svg">
<path d="M14.4901 0.995325C14.3603 0.999109 14.237 1.05328 14.1464 1.14637L5.49992 9.79285L1.85343 6.14637C1.80736 6.09838 1.75217 6.06007 1.69111 6.03368C1.63005 6.00729 1.56433 5.99334 1.49781 5.99267C1.43129 5.99199 1.3653 6.00459 1.30372 6.02974C1.24213 6.05488 1.18618 6.09206 1.13914 6.1391C1.0921 6.18614 1.05492 6.24209 1.02977 6.30368C1.00463 6.36527 0.992025 6.43126 0.992702 6.49778C0.993378 6.5643 1.00732 6.63001 1.03371 6.69108C1.0601 6.75214 1.09841 6.80732 1.1464 6.8534L5.1464 10.8534C5.24017 10.9471 5.36733 10.9998 5.49992 10.9998C5.6325 10.9998 5.75966 10.9471 5.85343 10.8534L14.8534 1.8534C14.9256 1.78315 14.9748 1.69275 14.9947 1.59405C15.0146 1.49535 15.0043 1.39294 14.965 1.30021C14.9258 1.20749 14.8594 1.12878 14.7747 1.07438C14.69 1.01998 14.5908 0.992426 14.4901 0.995325Z" fill="#1D4F74"/>
</svg>
