<svg width="16" height="16" viewBox="0 0 16 16" fill="none" xmlns="http://www.w3.org/2000/svg">
<path d="M3.50001 2.66663C2.30936 2.66663 1.33334 3.64265 1.33334 4.83329V11.1666C1.33334 12.3573 2.30936 13.3333 3.50001 13.3333H12.5C13.6907 13.3333 14.6667 12.3573 14.6667 11.1666V4.83329C14.6667 3.64265 13.6907 2.66663 12.5 2.66663H3.50001ZM3.50001 3.66663H12.5C13.15 3.66663 13.6667 4.18327 13.6667 4.83329V5.20178L8.00001 8.26493L2.33334 5.20178V4.83329C2.33334 4.18327 2.84999 3.66663 3.50001 3.66663ZM2.33334 6.3385L7.76238 9.2734C7.83538 9.31282 7.91704 9.33347 8.00001 9.33347C8.08298 9.33347 8.16464 9.31282 8.23764 9.2734L13.6667 6.3385V11.1666C13.6667 11.8166 13.15 12.3333 12.5 12.3333H3.50001C2.84999 12.3333 2.33334 11.8166 2.33334 11.1666V6.3385Z" fill="#1D4F74"/>
</svg>
