<svg width="16" height="16" viewBox="0 0 16 16" fill="none" xmlns="http://www.w3.org/2000/svg">
<path d="M3.49998 2.66675C2.30933 2.66675 1.33331 3.64277 1.33331 4.83341V11.1667C1.33331 12.3574 2.30933 13.3334 3.49998 13.3334H12.5C13.6906 13.3334 14.6666 12.3574 14.6666 11.1667V4.83341C14.6666 3.64277 13.6906 2.66675 12.5 2.66675H3.49998ZM3.49998 3.66675H12.5C13.15 3.66675 13.6666 4.18339 13.6666 4.83341V5.2019L7.99998 8.26506L2.33331 5.2019V4.83341C2.33331 4.18339 2.84996 3.66675 3.49998 3.66675ZM2.33331 6.33862L7.76235 9.27352C7.83535 9.31295 7.91701 9.33359 7.99998 9.33359C8.08295 9.33359 8.16461 9.31295 8.23761 9.27352L13.6666 6.33862V11.1667C13.6666 11.8168 13.15 12.3334 12.5 12.3334H3.49998C2.84996 12.3334 2.33331 11.8168 2.33331 11.1667V6.33862Z" fill="#1D4F74"/>
</svg>
