<svg width="15" height="15" viewBox="0 0 15 15" fill="none" xmlns="http://www.w3.org/2000/svg">
<path d="M5.77638 0.932617C5.68309 0.93264 5.59193 0.960495 5.51456 1.01262C5.43719 1.06474 5.37714 1.13876 5.34207 1.22521C5.30701 1.31166 5.29853 1.4066 5.31773 1.49789C5.33693 1.58918 5.38293 1.67267 5.44984 1.73767L11.2122 7.5L5.44984 13.2623C5.40485 13.3055 5.36894 13.3573 5.3442 13.4145C5.31945 13.4718 5.30638 13.5334 5.30575 13.5957C5.30512 13.6581 5.31693 13.7199 5.3405 13.7777C5.36408 13.8354 5.39893 13.8879 5.44303 13.932C5.48713 13.9761 5.53959 14.0109 5.59733 14.0345C5.65506 14.0581 5.71693 14.0699 5.77929 14.0693C5.84165 14.0686 5.90326 14.0556 5.96051 14.0308C6.01775 14.0061 6.06949 13.9702 6.11268 13.9252L12.2064 7.83142C12.2943 7.74351 12.3437 7.6243 12.3437 7.5C12.3437 7.3757 12.2943 7.25649 12.2064 7.16858L6.11268 1.07483C6.06899 1.02983 6.01671 0.994063 5.95895 0.969635C5.90118 0.945207 5.8391 0.93262 5.77638 0.932617Z" fill="#1D4F74"/>
</svg>
