<svg width="24" height="24" viewBox="0 0 24 24" fill="none" xmlns="http://www.w3.org/2000/svg">
<path d="M2.75 4.50008C2.65062 4.49867 2.55194 4.51703 2.45972 4.55409C2.36749 4.59115 2.28355 4.64617 2.21277 4.71595C2.142 4.78574 2.08579 4.86889 2.04743 4.96059C2.00907 5.05228 1.98932 5.15068 1.98932 5.25007C1.98932 5.34947 2.00907 5.44787 2.04743 5.53956C2.08579 5.63126 2.142 5.71441 2.21277 5.78419C2.28355 5.85398 2.36749 5.909 2.45972 5.94606C2.55194 5.98312 2.65062 6.00148 2.75 6.00007H21.25C21.3494 6.00148 21.4481 5.98312 21.5403 5.94606C21.6325 5.909 21.7164 5.85398 21.7872 5.78419C21.858 5.71441 21.9142 5.63126 21.9526 5.53956C21.9909 5.44787 22.0107 5.34947 22.0107 5.25007C22.0107 5.15068 21.9909 5.05228 21.9526 4.96059C21.9142 4.86889 21.858 4.78574 21.7872 4.71595C21.7164 4.64617 21.6325 4.59115 21.5403 4.55409C21.4481 4.51703 21.3494 4.49867 21.25 4.50008H2.75ZM2.75 11.2501C2.65062 11.2487 2.55194 11.267 2.45972 11.3041C2.36749 11.3412 2.28355 11.3962 2.21277 11.466C2.142 11.5357 2.08579 11.6189 2.04743 11.7106C2.00907 11.8023 1.98932 11.9007 1.98932 12.0001C1.98932 12.0995 2.00907 12.1979 2.04743 12.2896C2.08579 12.3813 2.142 12.4644 2.21277 12.5342C2.28355 12.604 2.36749 12.659 2.45972 12.6961C2.55194 12.7331 2.65062 12.7515 2.75 12.7501H21.25C21.3494 12.7515 21.4481 12.7331 21.5403 12.6961C21.6325 12.659 21.7164 12.604 21.7872 12.5342C21.858 12.4644 21.9142 12.3813 21.9526 12.2896C21.9909 12.1979 22.0107 12.0995 22.0107 12.0001C22.0107 11.9007 21.9909 11.8023 21.9526 11.7106C21.9142 11.6189 21.858 11.5357 21.7872 11.466C21.7164 11.3962 21.6325 11.3412 21.5403 11.3041C21.4481 11.267 21.3494 11.2487 21.25 11.2501H2.75ZM2.75 18.0001C2.65062 17.9987 2.55194 18.017 2.45972 18.0541C2.36749 18.0912 2.28355 18.1462 2.21277 18.216C2.142 18.2857 2.08579 18.3689 2.04743 18.4606C2.00907 18.5523 1.98932 18.6507 1.98932 18.7501C1.98932 18.8495 2.00907 18.9479 2.04743 19.0396C2.08579 19.1313 2.142 19.2144 2.21277 19.2842C2.28355 19.354 2.36749 19.409 2.45972 19.4461C2.55194 19.4831 2.65062 19.5015 2.75 19.5001H21.25C21.3494 19.5015 21.4481 19.4831 21.5403 19.4461C21.6325 19.409 21.7164 19.354 21.7872 19.2842C21.858 19.2144 21.9142 19.1313 21.9526 19.0396C21.9909 18.9479 22.0107 18.8495 22.0107 18.7501C22.0107 18.6507 21.9909 18.5523 21.9526 18.4606C21.9142 18.3689 21.858 18.2857 21.7872 18.216C21.7164 18.1462 21.6325 18.0912 21.5403 18.0541C21.4481 18.017 21.3494 17.9987 21.25 18.0001H2.75Z" fill="#1D4F74"/>
</svg>
