<svg width="20" height="18" viewBox="0 0 20 18" fill="none" xmlns="http://www.w3.org/2000/svg">
<path d="M5.5 0.5C2.47122 0.5 0 2.97122 0 6C0 8.04808 1.54382 9.97645 3.42578 11.9541C5.30774 13.9318 7.62419 15.9347 9.46973 17.7803C9.61038 17.9209 9.80112 17.9999 10 17.9999C10.1989 17.9999 10.3896 17.9209 10.5303 17.7803C12.3758 15.9347 14.6923 13.9318 16.5742 11.9541C18.4562 9.97645 20 8.04808 20 6C20 2.97122 17.5288 0.5 14.5 0.5C12.7618 0.5 11.2484 1.43324 10 3.01855C8.75159 1.43324 7.23822 0.5 5.5 0.5Z" fill="#009CA1"/>
</svg>
