<svg width="20" height="18" viewBox="0 0 20 18" fill="none" xmlns="http://www.w3.org/2000/svg">
<path d="M5.5 0.499512C2.47122 0.499512 0 2.97073 0 5.99951C0 8.04759 1.54382 9.97596 3.42578 11.9536C5.30774 13.9313 7.62419 15.9342 9.46973 17.7798C9.61038 17.9204 9.80112 17.9994 10 17.9994C10.1989 17.9994 10.3896 17.9204 10.5303 17.7798C12.3758 15.9342 14.6923 13.9313 16.5742 11.9536C18.4562 9.97596 20 8.04759 20 5.99951C20 2.97073 17.5288 0.499512 14.5 0.499512C12.7618 0.499512 11.2484 1.43276 10 3.01807C8.75159 1.43276 7.23822 0.499512 5.5 0.499512ZM5.5 1.99951C6.96429 1.99951 8.18315 2.77871 9.36621 4.6499C9.43386 4.75679 9.52744 4.84482 9.63826 4.90583C9.74907 4.96683 9.87351 4.99882 10 4.99882C10.1265 4.99882 10.2509 4.96683 10.3617 4.90583C10.4726 4.84482 10.5661 4.75679 10.6338 4.6499C11.8168 2.77871 13.0357 1.99951 14.5 1.99951C16.7182 1.99951 18.5 3.78129 18.5 5.99951C18.5 7.20143 17.2938 9.02306 15.4883 10.9204C13.8418 12.6506 11.7952 14.4582 10 16.2085C8.20484 14.4582 6.15821 12.6506 4.51172 10.9204C2.70618 9.02306 1.5 7.20143 1.5 5.99951C1.5 3.78129 3.28178 1.99951 5.5 1.99951Z" fill="#1D4F74"/>
</svg>
