<svg width="16" height="16" viewBox="0 0 16 16" fill="none" xmlns="http://www.w3.org/2000/svg">
<path d="M7.9928 1.65924C7.8603 1.66131 7.73405 1.71589 7.64176 1.81098C7.54948 1.90607 7.49871 2.03391 7.50061 2.1664V7.49974H2.16728C2.10102 7.4988 2.03524 7.51104 1.97376 7.53575C1.91227 7.56045 1.85631 7.59713 1.80913 7.64366C1.76194 7.69018 1.72447 7.74561 1.6989 7.80674C1.67333 7.86787 1.66016 7.93347 1.66016 7.99974C1.66016 8.066 1.67333 8.1316 1.6989 8.19273C1.72447 8.25386 1.76194 8.30929 1.80913 8.35582C1.85631 8.40234 1.91227 8.43902 1.97376 8.46373C2.03524 8.48843 2.10102 8.50067 2.16728 8.49974H7.50061V13.8331C7.49967 13.8993 7.51192 13.9651 7.53662 14.0266C7.56133 14.0881 7.59801 14.144 7.64453 14.1912C7.69105 14.2384 7.74649 14.2759 7.80762 14.3014C7.86875 14.327 7.93435 14.3402 8.00061 14.3402C8.06687 14.3402 8.13248 14.327 8.1936 14.3014C8.25473 14.2759 8.31017 14.2384 8.35669 14.1912C8.40321 14.144 8.43989 14.0881 8.4646 14.0266C8.48931 13.9651 8.50155 13.8993 8.50061 13.8331V8.49974H13.8339C13.9002 8.50067 13.966 8.48843 14.0275 8.46373C14.089 8.43902 14.1449 8.40234 14.1921 8.35582C14.2393 8.30929 14.2767 8.25386 14.3023 8.19273C14.3279 8.1316 14.3411 8.066 14.3411 7.99974C14.3411 7.93347 14.3279 7.86787 14.3023 7.80674C14.2767 7.74561 14.2393 7.69018 14.1921 7.64366C14.1449 7.59713 14.089 7.56045 14.0275 7.53575C13.966 7.51104 13.9002 7.4988 13.8339 7.49974H8.50061V2.1664C8.50157 2.09948 8.48909 2.03305 8.4639 1.97104C8.43871 1.90903 8.40133 1.85271 8.35397 1.80541C8.30662 1.75812 8.25025 1.72081 8.18821 1.6957C8.12617 1.67059 8.05972 1.65819 7.9928 1.65924Z" fill="#1D4F74"/>
</svg>
