<svg width="16" height="16" viewBox="0 0 16 16" fill="none" xmlns="http://www.w3.org/2000/svg">
<path d="M4.99967 2.33301C2.98049 2.33301 1.33301 3.98049 1.33301 5.99967C1.33301 7.36506 2.36222 8.65064 3.61686 9.96908C4.8715 11.2875 6.4158 12.6228 7.64616 13.8532C7.73993 13.9469 7.86709 13.9996 7.99967 13.9996C8.13226 13.9996 8.25942 13.9469 8.35319 13.8532C9.58355 12.6228 11.1278 11.2875 12.3825 9.96908C13.6371 8.65064 14.6663 7.36506 14.6663 5.99967C14.6663 3.98049 13.0189 2.33301 10.9997 2.33301C9.84086 2.33301 8.83195 2.95517 7.99967 4.01204C7.1674 2.95517 6.15849 2.33301 4.99967 2.33301ZM4.99967 3.33301C5.97586 3.33301 6.78844 3.85247 7.57715 5.09994C7.62225 5.17119 7.68464 5.22988 7.75851 5.27055C7.83239 5.31122 7.91535 5.33255 7.99967 5.33255C8.084 5.33255 8.16696 5.31122 8.24084 5.27055C8.31471 5.22988 8.3771 5.17119 8.4222 5.09994C9.21091 3.85247 10.0235 3.33301 10.9997 3.33301C12.4785 3.33301 13.6663 4.52086 13.6663 5.99967C13.6663 6.80096 12.8622 8.01538 11.6585 9.28027C10.5609 10.4337 9.19645 11.6388 7.99967 12.8057C6.8029 11.6388 5.43848 10.4337 4.34082 9.28027C3.13713 8.01538 2.33301 6.80096 2.33301 5.99967C2.33301 4.52086 3.52086 3.33301 4.99967 3.33301Z" fill="#1D4F74"/>
</svg>
