<svg width="16" height="16" viewBox="0 0 16 16" fill="none" xmlns="http://www.w3.org/2000/svg">
<path d="M2.1665 3.3335C1.344 3.3335 0.666504 4.011 0.666504 4.8335V10.5002C0.666504 11.3227 1.344 12.0002 2.1665 12.0002H2.40479C2.62458 12.7663 3.33326 13.3335 4.1665 13.3335C4.99975 13.3335 5.70842 12.7663 5.92822 12.0002H10.0715C10.2912 12.7663 10.9999 13.3335 11.8332 13.3335C12.6664 13.3335 13.3751 12.7663 13.5949 12.0002H13.8332C14.6557 12.0002 15.3332 11.3227 15.3332 10.5002V8.37907C15.3332 8.1686 15.2888 7.96186 15.2043 7.771C15.204 7.77078 15.2038 7.77056 15.2036 7.77035L14.2205 5.55811V5.55745C13.9805 5.01694 13.4414 4.66683 12.8501 4.66683H10.6496C10.5646 3.92237 9.93204 3.3335 9.1665 3.3335H2.1665ZM2.1665 4.3335H9.1665C9.44867 4.3335 9.6665 4.55133 9.6665 4.8335V5.16683V11.0002H5.92822C5.70842 10.234 4.99975 9.66683 4.1665 9.66683C3.33326 9.66683 2.62458 10.234 2.40479 11.0002H2.1665C1.88434 11.0002 1.6665 10.7823 1.6665 10.5002V4.8335C1.6665 4.55133 1.88434 4.3335 2.1665 4.3335ZM10.6665 5.66683H12.8501C13.0493 5.66683 13.2258 5.78185 13.3065 5.9637L13.9152 7.3335H10.6665V5.66683ZM10.6665 8.3335H14.3286C14.33 8.34867 14.3332 8.36392 14.3332 8.37907V10.5002C14.3332 10.7823 14.1153 11.0002 13.8332 11.0002H13.5949C13.3751 10.234 12.6664 9.66683 11.8332 9.66683C11.3912 9.66683 10.9844 9.82658 10.6665 10.0907V8.3335ZM4.1665 10.6668C4.61609 10.6668 4.97133 11.0111 4.99528 11.4539C4.99242 11.4847 4.99242 11.5156 4.99528 11.5464C4.97133 11.9892 4.61609 12.3335 4.1665 12.3335C3.71692 12.3335 3.36168 11.9892 3.33773 11.5464C3.34058 11.5156 3.34058 11.4847 3.33773 11.4539C3.36168 11.0111 3.71692 10.6668 4.1665 10.6668ZM11.8332 10.6668C12.2986 10.6668 12.6665 11.0347 12.6665 11.5002C12.6665 11.9656 12.2986 12.3335 11.8332 12.3335C11.3677 12.3335 10.9998 11.9656 10.9998 11.5002C10.9998 11.0347 11.3677 10.6668 11.8332 10.6668Z" fill="#1D4F74"/>
</svg>
