<svg width="24" height="24" viewBox="0 0 24 24" fill="none" xmlns="http://www.w3.org/2000/svg">
<path d="M19.7433 3.48947C19.5452 3.49414 19.357 3.577 19.2198 3.71994L12.0001 10.9397L4.78039 3.71994C4.71048 3.64794 4.62684 3.59071 4.53441 3.55163C4.44198 3.51254 4.34265 3.4924 4.2423 3.4924C4.09304 3.49243 3.94719 3.537 3.8234 3.6204C3.69961 3.70379 3.60352 3.82223 3.54741 3.96054C3.49131 4.09886 3.47775 4.25077 3.50847 4.39683C3.53918 4.5429 3.61278 4.67648 3.71984 4.78048L10.9396 12.0002L3.71984 19.2199C3.64786 19.289 3.5904 19.3718 3.55081 19.4634C3.51122 19.555 3.49031 19.6536 3.4893 19.7534C3.48828 19.8531 3.50719 19.9521 3.5449 20.0445C3.58262 20.1369 3.63839 20.2208 3.70895 20.2914C3.77951 20.3619 3.86344 20.4177 3.95582 20.4554C4.0482 20.4931 4.14718 20.512 4.24696 20.511C4.34674 20.51 4.44531 20.4891 4.53691 20.4495C4.6285 20.4099 4.71128 20.3525 4.78039 20.2805L12.0001 13.0608L19.2198 20.2805C19.289 20.3525 19.3717 20.4099 19.4633 20.4495C19.5549 20.4891 19.6535 20.51 19.7533 20.511C19.8531 20.512 19.952 20.4931 20.0444 20.4554C20.1368 20.4177 20.2207 20.3619 20.2913 20.2914C20.3618 20.2208 20.4176 20.1369 20.4553 20.0445C20.493 19.9521 20.5119 19.8531 20.5109 19.7534C20.5099 19.6536 20.489 19.555 20.4494 19.4634C20.4098 19.3718 20.3524 19.289 20.2804 19.2199L13.0607 12.0002L20.2804 4.78048C20.3895 4.6758 20.4643 4.54061 20.4952 4.39263C20.5261 4.24465 20.5116 4.09079 20.4535 3.95121C20.3955 3.81164 20.2966 3.69287 20.1698 3.61047C20.0431 3.52807 19.8944 3.4859 19.7433 3.48947Z" fill="#1D4F74"/>
</svg>
