<svg width="16" height="16" viewBox="0 0 16 16" fill="none" xmlns="http://www.w3.org/2000/svg">
<path d="M2.16728 7.50005C2.10102 7.49911 2.03524 7.51135 1.97376 7.53606C1.91227 7.56077 1.85631 7.59745 1.80913 7.64397C1.76194 7.69049 1.72447 7.74593 1.6989 7.80706C1.67333 7.86819 1.66016 7.93379 1.66016 8.00005C1.66016 8.06631 1.67333 8.13191 1.6989 8.19304C1.72447 8.25417 1.76194 8.30961 1.80913 8.35613C1.85631 8.40265 1.91227 8.43933 1.97376 8.46404C2.03524 8.48875 2.10102 8.50099 2.16728 8.50005H13.8339C13.9002 8.50099 13.966 8.48875 14.0275 8.46404C14.089 8.43933 14.1449 8.40265 14.1921 8.35613C14.2393 8.30961 14.2767 8.25417 14.3023 8.19304C14.3279 8.13191 14.3411 8.06631 14.3411 8.00005C14.3411 7.93379 14.3279 7.86819 14.3023 7.80706C14.2767 7.74593 14.2393 7.69049 14.1921 7.64397C14.1449 7.59745 14.089 7.56077 14.0275 7.53606C13.966 7.51135 13.9002 7.49911 13.8339 7.50005H2.16728Z" fill="#1D4F74"/>
</svg>
