<svg width="16" height="16" viewBox="0 0 16 16" fill="none" xmlns="http://www.w3.org/2000/svg">
<path d="M5.83331 1.6665C5.01081 1.6665 4.33331 2.344 4.33331 3.1665V7.70947C3.18082 7.8209 2.28908 8.5554 1.6979 9.26351C1.05837 10.0295 0.711568 10.7948 0.711568 10.7948C0.684319 10.8545 0.66911 10.9191 0.666811 10.9847C0.664511 11.0504 0.675165 11.1158 0.698164 11.1773C0.721163 11.2389 0.756057 11.2952 0.800853 11.3433C0.845649 11.3913 0.899469 11.4301 0.95924 11.4573C1.01901 11.4845 1.08356 11.4997 1.1492 11.502C1.21485 11.5043 1.2803 11.4936 1.34182 11.4706C1.40334 11.4476 1.45972 11.4127 1.50775 11.3679C1.55577 11.3231 1.5945 11.2692 1.62172 11.2095C1.62172 11.2095 1.92142 10.5564 2.46547 9.90479C3.00953 9.25313 3.7533 8.6665 4.6087 8.6665C5.11565 8.6665 5.33486 8.73511 5.74477 8.8221C6.15468 8.9091 6.70786 8.99984 7.70245 8.99984H9.16664C9.44881 8.99984 9.66664 9.21767 9.66664 9.49984C9.66664 9.65634 9.59804 9.79127 9.49021 9.882C9.49012 9.88207 9.47654 9.89242 9.47654 9.89242C9.46693 9.89989 9.45759 9.9077 9.44855 9.91585C9.44833 9.91607 9.44811 9.91629 9.44789 9.9165C9.36841 9.96938 9.27213 9.99984 9.16664 9.99984H6.83331C6.76706 9.9989 6.70127 10.0111 6.63979 10.0358C6.57831 10.0606 6.52235 10.0972 6.47516 10.1438C6.42798 10.1903 6.39051 10.2457 6.36493 10.3068C6.33936 10.368 6.32619 10.4336 6.32619 10.4998C6.32619 10.5661 6.33936 10.6317 6.36493 10.6928C6.39051 10.754 6.42798 10.8094 6.47516 10.8559C6.52235 10.9024 6.57831 10.9391 6.63979 10.9638C6.70127 10.9885 6.76706 11.0008 6.83331 10.9998H9.16664C9.48019 10.9998 9.77175 10.9003 10.0136 10.7329C10.014 10.7326 10.0146 10.7325 10.015 10.7323C10.0358 10.7209 10.0558 10.7081 10.0748 10.6938C10.0748 10.6938 12.9245 8.56583 13.4245 8.19385C13.6126 8.0541 13.7691 8.00667 13.8795 8.0057C13.9899 8.00473 14.0726 8.03209 14.1868 8.14632C14.384 8.34345 14.3828 8.64439 14.1907 8.84424C12.4057 10.3452 11.2828 11.3455 10.541 11.9315C9.78995 12.5248 9.47498 12.6665 9.16664 12.6665C7.94892 12.6665 6.59989 12.3332 5.16665 12.3332C4.33331 12.3332 3.74757 12.781 3.43357 13.1997C3.11957 13.6184 3.01495 14.0454 3.01495 14.0454C2.9973 14.1097 2.99268 14.1768 3.00136 14.2429C3.01003 14.309 3.03183 14.3727 3.06547 14.4302C3.09911 14.4878 3.14391 14.538 3.19725 14.578C3.25058 14.6179 3.31136 14.6468 3.37603 14.663C3.44069 14.6791 3.50793 14.6822 3.57379 14.672C3.63965 14.6617 3.70281 14.6385 3.75955 14.6035C3.81628 14.5685 3.86545 14.5226 3.90417 14.4683C3.94289 14.4141 3.97037 14.3526 3.985 14.2876C3.985 14.2876 4.04705 14.048 4.23305 13.8C4.41905 13.552 4.66665 13.3332 5.16665 13.3332C6.4354 13.3332 7.77837 13.6665 9.16664 13.6665C9.80065 13.6665 10.3616 13.348 11.1608 12.7166C11.95 12.0931 13.0585 11.103 14.8333 9.61051C14.8548 9.59542 14.875 9.57866 14.8939 9.56038C14.8962 9.55808 14.8968 9.55489 14.8991 9.55257L14.9004 9.55387L14.9179 9.53564C14.9667 9.48481 15.0042 9.42424 15.028 9.35791C15.4432 8.7737 15.416 7.96075 14.8939 7.43864C14.6174 7.16221 14.2444 7.00242 13.8711 7.0057C13.5637 7.00839 13.2703 7.11297 13 7.27913V3.1665C13 2.344 12.3225 1.6665 11.5 1.6665H5.83331ZM5.83331 2.6665H11.5C11.7821 2.6665 12 2.88434 12 3.1665V8.00895C11.435 8.43058 11.1469 8.64566 10.5924 9.05973C10.4015 8.45034 9.83529 7.99984 9.16664 7.99984H7.70245C6.76538 7.99984 6.32788 7.92391 5.95245 7.84424C5.77947 7.80753 5.52575 7.79529 5.33331 7.76221V3.1665C5.33331 2.88434 5.55115 2.6665 5.83331 2.6665ZM7.83331 3.6665C7.76706 3.66557 7.70127 3.67781 7.63979 3.70251C7.57831 3.72722 7.52235 3.7639 7.47516 3.81042C7.42798 3.85695 7.39051 3.91238 7.36493 3.97351C7.33936 4.03464 7.32619 4.10024 7.32619 4.1665C7.32619 4.23277 7.33936 4.29837 7.36493 4.3595C7.39051 4.42063 7.42798 4.47606 7.47516 4.52258C7.52235 4.56911 7.57831 4.60579 7.63979 4.63049C7.70127 4.6552 7.76706 4.66744 7.83331 4.6665H9.49998C9.56623 4.66744 9.63202 4.6552 9.6935 4.63049C9.75498 4.60579 9.81094 4.56911 9.85813 4.52258C9.90531 4.47606 9.94278 4.42063 9.96836 4.3595C9.99393 4.29837 10.0071 4.23277 10.0071 4.1665C10.0071 4.10024 9.99393 4.03464 9.96836 3.97351C9.94278 3.91238 9.90531 3.85695 9.85813 3.81042C9.81094 3.7639 9.75498 3.72722 9.6935 3.70251C9.63202 3.67781 9.56623 3.66557 9.49998 3.6665H7.83331Z" fill="#1D4F74"/>
</svg>
