<svg width="12" height="12" viewBox="0 0 12 12" fill="none" xmlns="http://www.w3.org/2000/svg">
<path d="M6.6324 2.24625C6.72979 2.24909 6.82225 2.28972 6.89021 2.35953L10.3902 5.85953C10.4605 5.92986 10.5 6.02523 10.5 6.12467C10.5 6.22411 10.4605 6.31948 10.3902 6.3898L6.89021 9.8898C6.85565 9.92579 6.81427 9.95453 6.76847 9.97432C6.72267 9.99411 6.67338 10.0046 6.62349 10.0051C6.5736 10.0056 6.52411 9.99613 6.47792 9.97727C6.43173 9.95841 6.38977 9.93053 6.35449 9.89525C6.31921 9.85997 6.29132 9.81801 6.27247 9.77182C6.25361 9.72563 6.24415 9.67614 6.24466 9.62625C6.24517 9.57636 6.25563 9.52707 6.27542 9.48127C6.29521 9.43547 6.32395 9.39408 6.35994 9.35953L9.2198 6.49967H1.87507C1.82538 6.50037 1.77604 6.49119 1.72993 6.47266C1.68382 6.45413 1.64185 6.42662 1.60646 6.39173C1.57107 6.35684 1.54297 6.31526 1.52379 6.26941C1.50461 6.22357 1.49473 6.17436 1.49473 6.12467C1.49473 6.07497 1.50461 6.02577 1.52379 5.97992C1.54297 5.93408 1.57107 5.8925 1.60646 5.85761C1.64185 5.82272 1.68382 5.79521 1.72993 5.77668C1.77604 5.75815 1.82538 5.74896 1.87507 5.74967H9.2198L6.35994 2.8898C6.30584 2.83712 6.2689 2.76932 6.25397 2.69529C6.23903 2.62127 6.2468 2.54446 6.27624 2.47492C6.30568 2.40537 6.35543 2.34634 6.41898 2.30554C6.48253 2.26474 6.55691 2.24408 6.6324 2.24625Z" fill="#1D4F74"/>
</svg>
