<svg width="16" height="16" viewBox="0 0 16 16" fill="none" xmlns="http://www.w3.org/2000/svg">
<path d="M5.50002 1.66675C3.38882 1.66675 1.66669 3.38888 1.66669 5.50008V10.5001C1.66669 12.611 3.38876 14.3334 5.50002 14.3334H10.5C12.611 14.3334 14.3334 12.6111 14.3334 10.5001V5.50008C14.3334 3.38882 12.6109 1.66675 10.5 1.66675H5.50002ZM5.50002 2.66675H10.5C12.0704 2.66675 13.3334 3.92935 13.3334 5.50008V10.5001C13.3334 12.0704 12.0704 13.3334 10.5 13.3334H5.50002C3.92928 13.3334 2.66669 12.0705 2.66669 10.5001V5.50008C2.66669 3.92928 3.92922 2.66675 5.50002 2.66675ZM11.3334 4.00008C10.965 4.00008 10.6667 4.29841 10.6667 4.66675C10.6667 5.03508 10.965 5.33341 11.3334 5.33341C11.7017 5.33341 12 5.03508 12 4.66675C12 4.29841 11.7017 4.00008 11.3334 4.00008ZM8.00002 4.66675C6.16508 4.66675 4.66669 6.16514 4.66669 8.00008C4.66669 9.83502 6.16508 11.3334 8.00002 11.3334C9.83496 11.3334 11.3334 9.83502 11.3334 8.00008C11.3334 6.16514 9.83496 4.66675 8.00002 4.66675ZM8.00002 5.66675C9.29441 5.66675 10.3334 6.70569 10.3334 8.00008C10.3334 9.29447 9.29441 10.3334 8.00002 10.3334C6.70563 10.3334 5.66669 9.29447 5.66669 8.00008C5.66669 6.70569 6.70563 5.66675 8.00002 5.66675Z" fill="#1D4F74"/>
</svg>
