<svg width="24" height="24" viewBox="0 0 24 24" fill="none" xmlns="http://www.w3.org/2000/svg">
<path d="M5.26953 0C4.38032 0 3.53479 0.395487 2.96484 1.07943L0.695312 3.80339C0.694878 3.80339 0.694444 3.80339 0.69401 3.80339C0.246004 4.34219 0 5.02234 0 5.72396V20.3333C0 22.3465 1.65348 24 3.66667 24H20.3333C22.3465 24 24 22.3465 24 20.3333V5.72396C24 5.02234 23.7538 4.3425 23.3047 3.80339L21.0352 1.07943C20.4652 0.395487 19.6197 0 18.7305 0H5.26953ZM5.26953 2H11V4.66667H2.57812L4.5013 2.35938C4.69135 2.13132 4.97208 2 5.26953 2ZM13 2H18.7305C19.0279 2 19.3086 2.13132 19.4987 2.35938L21.4206 4.66667H13V2ZM2 6.66667H22V20.3333C22 21.2655 21.2655 22 20.3333 22H3.66667C2.73452 22 2 21.2655 2 20.3333V6.66667ZM9 9.33333C8.86749 9.33146 8.73593 9.35594 8.61296 9.40536C8.48999 9.45477 8.37807 9.52813 8.2837 9.62117C8.18933 9.71422 8.11439 9.82509 8.06324 9.94735C8.0121 10.0696 7.98576 10.2008 7.98576 10.3333C7.98576 10.4659 8.0121 10.5971 8.06324 10.7193C8.11439 10.8416 8.18933 10.9524 8.2837 11.0455C8.37807 11.1385 8.48999 11.2119 8.61296 11.2613C8.73593 11.3107 8.86749 11.3352 9 11.3333H15C15.1325 11.3352 15.2641 11.3107 15.387 11.2613C15.51 11.2119 15.6219 11.1385 15.7163 11.0455C15.8107 10.9524 15.8856 10.8416 15.9368 10.7193C15.9879 10.5971 16.0142 10.4659 16.0142 10.3333C16.0142 10.2008 15.9879 10.0696 15.9368 9.94735C15.8856 9.82509 15.8107 9.71422 15.7163 9.62117C15.6219 9.52813 15.51 9.45477 15.387 9.40536C15.2641 9.35594 15.1325 9.33146 15 9.33333H9Z" fill="#1D4F74"/>
</svg>
