<svg width="45" height="32" viewBox="0 0 45 32" fill="none" xmlns="http://www.w3.org/2000/svg">
<path d="M45 0H0V32H45V0Z" fill="white"/>
<path d="M44.1354 9.34619H0.917297V22.6966H44.1354V9.34619Z" fill="#0061AF"/>
<path fill-rule="evenodd" clip-rule="evenodd" d="M17.9663 1.7267V2.64407H18.9995V1.7267H17.9663ZM7.07473 1.7375V2.65487H8.108V1.7375H7.07473ZM4.90674 0.755371C2.6976 0.755371 0.906738 2.54623 0.906738 4.75537V8.21304H44.1249V4.75537C44.1249 2.54623 42.334 0.755371 40.1249 0.755371H4.90674ZM36.3543 6.3891V7.2633H37.4402V6.3891H36.3543ZM8.95149 1.7267V2.64407H9.98476V1.7267H8.95149ZM34.4986 6.3891V7.2633H35.5846V6.3891H34.4986ZM25.8107 2.92468V7.12299H33.5707V4.52198L34.4142 5.75234H40.7826L41.7947 4.36009L40.8458 2.95706H37.5773L37.2821 2.61169H40.7193L40.1183 1.75908H34.7622L36.1434 3.88522H39.4646L39.8864 4.44643H35.69L34.6356 2.93547H32.1263V6.07611H27.4871V4.209H31.2617V2.93547H25.8001L25.8107 2.92468ZM21.2875 3.9176H23.7758V5.0724H21.2875V3.9176ZM4.60753 1.76987L3.13143 4.27375L4.12253 5.8063H19.1577V3.20529H17.8608V4.27375H17.2177V3.19449H15.8048V4.30613H4.83949L6.19962 1.75908H4.60753V1.76987Z" fill="#0061AF"/>
<path fill-rule="evenodd" clip-rule="evenodd" d="M0.917297 23.8191V27.2768C0.917297 29.4859 2.70816 31.2768 4.9173 31.2768H40.1354C42.3446 31.2768 44.1354 29.4859 44.1354 27.2768V23.8191H0.917297ZM37.5246 24.9199V25.5567H36.3964V26.8302H37.5246V29.2586C37.5246 29.2586 37.7249 30.694 39.549 30.4889C39.549 30.4889 41.3308 30.2838 41.6893 30.0464V29.183L40.5295 29.2262C40.5295 29.2262 40.0656 29.1075 40.0972 28.5894V26.841H41.6893V25.5675H40.0972V24.294L37.5351 24.9307L37.5246 24.9199ZM21.8252 26.9489C21.8252 26.9489 22.2891 26.0316 23.4911 26.1503C23.4911 26.1503 24.6193 26.0316 25.0832 26.9489H21.8147H21.8252ZM28.0038 28.0282C28.0038 28.0282 27.9299 25.0818 23.6493 25.0818C23.6493 25.0818 19.7587 24.8444 19.3369 27.8663C19.3369 27.8663 19.3791 30.8127 23.6914 30.5752C23.6914 30.5752 26.5909 30.64 27.698 28.7405H25.0937C25.0937 28.7405 24.9356 29.496 23.5333 29.496C23.5333 29.496 21.899 29.5715 21.6671 28.0282H28.0038ZM3.13145 25.5675V30.1435H5.57756V27.5965C5.57756 27.5965 6.12583 26.841 7.28562 26.7655C7.28562 26.7655 8.60357 26.8842 8.60357 27.7584V30.1435H11.0497V27.4778C11.0497 27.4778 11.0497 25.6107 8.2978 25.3624C8.2978 25.3624 6.47376 25.3193 5.57756 26.3553V25.5567H3.13145V25.5675Z" fill="#0061AF"/>
<path fill-rule="evenodd" clip-rule="evenodd" d="M7.6441 9.76709H16.6167V14.9367L23.4911 9.85343H35.5424L28.1619 15.7354L36.4808 21.8656H23.6914L16.5851 15.4224V21.7792H7.6441V9.76709Z" fill="#FFD200"/>
</svg>
