<svg width="48" height="48" viewBox="0 0 48 48" fill="none" xmlns="http://www.w3.org/2000/svg">
<path d="M45 35C45 37.209 43.209 39 41 39H7C4.791 39 3 37.209 3 35V13C3 10.791 4.791 9 7 9H41C43.209 9 45 10.791 45 13V35Z" fill="#3F51B5"/>
<path d="M30 14C27.3478 14 24.8043 15.0536 22.9289 16.9289C21.0536 18.8043 20 21.3478 20 24C20 26.6522 21.0536 29.1957 22.9289 31.0711C24.8043 32.9464 27.3478 34 30 34C32.6522 34 35.1957 32.9464 37.0711 31.0711C38.9464 29.1957 40 26.6522 40 24C40 21.3478 38.9464 18.8043 37.0711 16.9289C35.1957 15.0536 32.6522 14 30 14Z" fill="#FFC107"/>
<path d="M22.014 30C21.55 29.383 21.151 28.716 20.838 28H26.163C26.441 27.364 26.659 26.696 26.8 26H20.202C20.07 25.354 20 24.686 20 24H27C27 23.314 26.93 22.646 26.799 22H20.201C20.343 21.304 20.56 20.636 20.838 20H26.163C25.85 19.284 25.452 18.617 24.987 18H22.014C22.451 17.42 22.944 16.878 23.495 16.405C21.747 14.909 19.481 14 17 14C11.477 14 7 18.477 7 24C7 29.523 11.477 34 17 34C20.269 34 23.162 32.425 24.986 30H22.014Z" fill="#FF3D00"/>
</svg>
