<svg width="16" height="16" viewBox="0 0 16 16" fill="none" xmlns="http://www.w3.org/2000/svg">
<path d="M2.4998 3.00005C2.43354 2.99911 2.36776 3.01135 2.30628 3.03606C2.24479 3.06077 2.18883 3.09745 2.14165 3.14397C2.09446 3.19049 2.05699 3.24593 2.03142 3.30706C2.00585 3.36819 1.99268 3.43379 1.99268 3.50005C1.99268 3.56631 2.00585 3.63191 2.03142 3.69304C2.05699 3.75417 2.09446 3.80961 2.14165 3.85613C2.18883 3.90265 2.24479 3.93933 2.30628 3.96404C2.36776 3.98875 2.43354 4.00099 2.4998 4.00005H13.4998C13.5661 4.00099 13.6318 3.98875 13.6933 3.96404C13.7548 3.93933 13.8108 3.90265 13.8579 3.85613C13.9051 3.80961 13.9426 3.75417 13.9682 3.69304C13.9937 3.63191 14.0069 3.56631 14.0069 3.50005C14.0069 3.43379 13.9937 3.36819 13.9682 3.30706C13.9426 3.24593 13.9051 3.19049 13.8579 3.14397C13.8108 3.09745 13.7548 3.06077 13.6933 3.03606C13.6318 3.01135 13.5661 2.99911 13.4998 3.00005H2.4998ZM2.4998 5.33338C2.43354 5.33245 2.36776 5.34469 2.30628 5.36939C2.24479 5.3941 2.18883 5.43078 2.14165 5.4773C2.09446 5.52383 2.05699 5.57926 2.03142 5.64039C2.00585 5.70152 1.99268 5.76712 1.99268 5.83338C1.99268 5.89965 2.00585 5.96525 2.03142 6.02638C2.05699 6.0875 2.09446 6.14294 2.14165 6.18946C2.18883 6.23598 2.24479 6.27266 2.30628 6.29737C2.36776 6.32208 2.43354 6.33432 2.4998 6.33338H13.4998C13.5661 6.33432 13.6318 6.32208 13.6933 6.29737C13.7548 6.27266 13.8108 6.23598 13.8579 6.18946C13.9051 6.14294 13.9426 6.0875 13.9682 6.02638C13.9937 5.96525 14.0069 5.89965 14.0069 5.83338C14.0069 5.76712 13.9937 5.70152 13.9682 5.64039C13.9426 5.57926 13.9051 5.52383 13.8579 5.4773C13.8108 5.43078 13.7548 5.3941 13.6933 5.36939C13.6318 5.34469 13.5661 5.33245 13.4998 5.33338H2.4998ZM2.4998 7.66672C2.43354 7.66578 2.36776 7.67802 2.30628 7.70273C2.24479 7.72743 2.18883 7.76411 2.14165 7.81064C2.09446 7.85716 2.05699 7.91259 2.03142 7.97372C2.00585 8.03485 1.99268 8.10045 1.99268 8.16672C1.99268 8.23298 2.00585 8.29858 2.03142 8.35971C2.05699 8.42084 2.09446 8.47627 2.14165 8.5228C2.18883 8.56932 2.24479 8.606 2.30628 8.6307C2.36776 8.65541 2.43354 8.66765 2.4998 8.66672H13.4998C13.5661 8.66765 13.6318 8.65541 13.6933 8.6307C13.7548 8.606 13.8108 8.56932 13.8579 8.5228C13.9051 8.47627 13.9426 8.42084 13.9682 8.35971C13.9937 8.29858 14.0069 8.23298 14.0069 8.16672C14.0069 8.10045 13.9937 8.03485 13.9682 7.97372C13.9426 7.91259 13.9051 7.85716 13.8579 7.81064C13.8108 7.76411 13.7548 7.72743 13.6933 7.70273C13.6318 7.67802 13.5661 7.66578 13.4998 7.66672H2.4998ZM2.4998 10C2.43354 9.99911 2.36776 10.0114 2.30628 10.0361C2.24479 10.0608 2.18883 10.0974 2.14165 10.144C2.09446 10.1905 2.05699 10.2459 2.03142 10.3071C2.00585 10.3682 1.99268 10.4338 1.99268 10.5C1.99268 10.5663 2.00585 10.6319 2.03142 10.693C2.05699 10.7542 2.09446 10.8096 2.14165 10.8561C2.18883 10.9027 2.24479 10.9393 2.30628 10.964C2.36776 10.9887 2.43354 11.001 2.4998 11H13.4998C13.5661 11.001 13.6318 10.9887 13.6933 10.964C13.7548 10.9393 13.8108 10.9027 13.8579 10.8561C13.9051 10.8096 13.9426 10.7542 13.9682 10.693C13.9937 10.6319 14.0069 10.5663 14.0069 10.5C14.0069 10.4338 13.9937 10.3682 13.9682 10.3071C13.9426 10.2459 13.9051 10.1905 13.8579 10.144C13.8108 10.0974 13.7548 10.0608 13.6933 10.0361C13.6318 10.0114 13.5661 9.99911 13.4998 10H2.4998ZM2.4998 12.3334C2.43354 12.3324 2.36776 12.3447 2.30628 12.3694C2.24479 12.3941 2.18883 12.4308 2.14165 12.4773C2.09446 12.5238 2.05699 12.5793 2.03142 12.6404C2.00585 12.7015 1.99268 12.7671 1.99268 12.8334C1.99268 12.8996 2.00585 12.9652 2.03142 13.0264C2.05699 13.0875 2.09446 13.1429 2.14165 13.1895C2.18883 13.236 2.24479 13.2727 2.30628 13.2974C2.36776 13.3221 2.43354 13.3343 2.4998 13.3334H9.83313C9.89939 13.3343 9.96517 13.3221 10.0267 13.2974C10.0881 13.2727 10.1441 13.236 10.1913 13.1895C10.2385 13.1429 10.2759 13.0875 10.3015 13.0264C10.3271 12.9652 10.3403 12.8996 10.3403 12.8334C10.3403 12.7671 10.3271 12.7015 10.3015 12.6404C10.2759 12.5793 10.2385 12.5238 10.1913 12.4773C10.1441 12.4308 10.0881 12.3941 10.0267 12.3694C9.96517 12.3447 9.89939 12.3324 9.83313 12.3334H2.4998Z" fill="#1D4F74"/>
</svg>
