<svg width="20" height="20" viewBox="0 0 20 20" fill="none" xmlns="http://www.w3.org/2000/svg">
<path d="M6.25 0.5C3.08319 0.5 0.5 3.08319 0.5 6.25V13.75C0.5 16.9164 3.0831 19.5 6.25 19.5H13.75C16.9165 19.5 19.5 16.9165 19.5 13.75V6.25C19.5 3.0831 16.9164 0.5 13.75 0.5H6.25ZM6.25 2H13.75C16.1056 2 18 3.8939 18 6.25V13.75C18 16.1055 16.1055 18 13.75 18H6.25C3.8939 18 2 16.1056 2 13.75V6.25C2 3.89381 3.89381 2 6.25 2ZM15 4C14.4475 4 14 4.4475 14 5C14 5.5525 14.4475 6 15 6C15.5525 6 16 5.5525 16 5C16 4.4475 15.5525 4 15 4ZM10 5C7.24759 5 5 7.24759 5 10C5 12.7524 7.24759 15 10 15C12.7524 15 15 12.7524 15 10C15 7.24759 12.7524 5 10 5ZM10 6.5C11.9416 6.5 13.5 8.05841 13.5 10C13.5 11.9416 11.9416 13.5 10 13.5C8.05841 13.5 6.5 11.9416 6.5 10C6.5 8.05841 8.05841 6.5 10 6.5Z" fill="#1D4F74"/>
</svg>
