<svg width="20" height="20" viewBox="0 0 20 20" fill="none" xmlns="http://www.w3.org/2000/svg">
<path d="M10 -0.000976562C4.48615 -0.000976562 0 4.48517 0 9.99902C0 11.6367 0.431354 13.1674 1.13086 14.5322L0.046875 18.4131C-0.205601 19.3148 0.685963 20.2063 1.58789 19.9541L5.47168 18.8701C6.83537 19.5682 8.36388 19.999 10 19.999C15.5139 19.999 20 15.5129 20 9.99902C20 4.48517 15.5139 -0.000976562 10 -0.000976562ZM10 1.49902C14.7031 1.49902 18.5 5.29588 18.5 9.99902C18.5 14.7022 14.7031 18.499 10 18.499C8.49921 18.499 7.0953 18.1088 5.87109 17.4268C5.69853 17.3306 5.495 17.3064 5.30469 17.3594L1.61133 18.3896L2.64258 14.6982C2.69585 14.5076 2.67163 14.3037 2.5752 14.1309C1.89183 12.9058 1.5 11.5013 1.5 9.99902C1.5 5.29588 5.29685 1.49902 10 1.49902ZM6.62012 5.5C6.46062 5.5 6.2029 5.55983 5.9834 5.79883C5.7644 6.03683 5.14746 6.61406 5.14746 7.78906C5.14746 8.96406 6.00257 10.0988 6.12207 10.2588C6.24107 10.4173 7.77367 12.9063 10.2012 13.8633C12.2182 14.6583 12.6284 14.5 13.0664 14.46C13.5044 14.421 14.4797 13.8832 14.6787 13.3252C14.8777 12.7672 14.8778 12.2899 14.8193 12.1914C14.7598 12.0919 14.6003 12.0316 14.3613 11.9121C14.1228 11.7926 12.9495 11.2152 12.7305 11.1357C12.5115 11.0562 12.3514 11.0159 12.1924 11.2549C12.0334 11.4939 11.576 12.0314 11.4365 12.1904C11.297 12.3504 11.1579 12.3705 10.9189 12.251C10.6794 12.1305 9.91105 11.8789 8.99805 11.0654C8.28805 10.4329 7.8104 9.65111 7.6709 9.41211C7.5319 9.17411 7.65589 9.0433 7.77539 8.9248C7.88289 8.8178 8.01429 8.64634 8.13379 8.50684C8.25229 8.36734 8.29159 8.26838 8.37109 8.10938C8.45059 7.95087 8.41106 7.81091 8.35156 7.69141C8.29206 7.57191 7.82773 6.39047 7.61523 5.91797C7.43673 5.52097 7.24862 5.51236 7.07812 5.50586C6.93913 5.50036 6.77912 5.5 6.62012 5.5Z" fill="#009CA1"/>
</svg>
