<svg width="32" height="32" viewBox="0 0 32 32" fill="none" xmlns="http://www.w3.org/2000/svg">
<path d="M7.66667 1.33301C3.44433 1.33301 0 4.77734 0 8.99967C0 10.6213 0.511227 12.1258 1.3763 13.3669C1.34688 13.4639 1.33239 13.5649 1.33333 13.6663V20.9997C1.33333 22.6447 2.68833 23.9997 4.33333 23.9997H4.8099C5.24949 25.5319 6.66684 26.6663 8.33333 26.6663C9.99982 26.6663 11.4172 25.5319 11.8568 23.9997H20.1432C20.5828 25.5319 22.0002 26.6663 23.6667 26.6663C25.3332 26.6663 26.7505 25.5319 27.1901 23.9997H27.6667C29.3117 23.9997 30.6667 22.6447 30.6667 20.9997V16.7575C30.6667 16.3365 30.5778 15.9231 30.4089 15.5413C30.4084 15.5409 30.408 15.5405 30.4076 15.54L28.4414 11.1156V11.1143C27.9613 10.0332 26.8832 9.33301 25.7005 9.33301H21.2995C21.1295 7.84409 19.8644 6.66634 18.3333 6.66634H14.9674C13.9761 3.57896 11.0758 1.33301 7.66667 1.33301ZM7.66667 3.33301C10.8081 3.33301 13.3333 5.85821 13.3333 8.99967C13.3333 12.1411 10.8081 14.6663 7.66667 14.6663C4.52521 14.6663 2 12.1411 2 8.99967C2 5.85821 4.52521 3.33301 7.66667 3.33301ZM7.65104 4.65202C7.38605 4.65616 7.13354 4.76531 6.94897 4.95549C6.7644 5.14568 6.66287 5.40135 6.66667 5.66634V8.99967C6.66672 9.26487 6.7721 9.51919 6.95963 9.70671L8.29297 11.04C8.38511 11.136 8.49548 11.2126 8.61761 11.2654C8.73974 11.3182 8.87117 11.3461 9.00421 11.3474C9.13725 11.3488 9.26922 11.3236 9.3924 11.2733C9.51557 11.223 9.62748 11.1486 9.72155 11.0546C9.81563 10.9605 9.88999 10.8486 9.94028 10.7254C9.99057 10.6022 10.0158 10.4703 10.0144 10.3372C10.0131 10.2042 9.98519 10.0727 9.9324 9.95062C9.87962 9.82849 9.803 9.71812 9.70703 9.62598L8.66667 8.58561V5.66634C8.66859 5.5325 8.64362 5.39963 8.59324 5.27561C8.54286 5.1516 8.46811 5.03896 8.37339 4.94437C8.27868 4.84977 8.16594 4.77516 8.04186 4.72494C7.91778 4.67472 7.78488 4.64993 7.65104 4.65202ZM15.3164 8.66634H18.3333C18.8977 8.66634 19.3333 9.10201 19.3333 9.66634V10.333V21.9997H11.8568C11.4172 20.4674 9.99982 19.333 8.33333 19.333C6.66684 19.333 5.24949 20.4674 4.8099 21.9997H4.33333C3.769 21.9997 3.33333 21.564 3.33333 20.9997V15.3148C4.5678 16.1653 6.06 16.6663 7.66667 16.6663C11.889 16.6663 15.3333 13.222 15.3333 8.99967C15.3333 8.88726 15.3212 8.7776 15.3164 8.66634ZM21.3333 11.333H25.7005C26.0988 11.333 26.4519 11.5631 26.6133 11.9268L27.8307 14.6663H21.3333V11.333ZM21.3333 16.6663H28.6576C28.6604 16.6967 28.6667 16.7272 28.6667 16.7575V20.9997C28.6667 21.564 28.231 21.9997 27.6667 21.9997H27.1901C26.7505 20.4674 25.3332 19.333 23.6667 19.333C22.7827 19.333 21.9691 19.6525 21.3333 20.1807V16.6663ZM8.33333 21.333C9.2325 21.333 9.94299 22.0215 9.99088 22.9072C9.98518 22.9687 9.98518 23.0306 9.99088 23.0921C9.94299 23.9778 9.2325 24.6663 8.33333 24.6663C7.43417 24.6663 6.72368 23.9778 6.67578 23.0921C6.68149 23.0306 6.68149 22.9687 6.67578 22.9072C6.72368 22.0215 7.43417 21.333 8.33333 21.333ZM23.6667 21.333C24.5976 21.333 25.3333 22.0687 25.3333 22.9997C25.3333 23.9306 24.5976 24.6663 23.6667 24.6663C22.7357 24.6663 22 23.9306 22 22.9997C22 22.0687 22.7357 21.333 23.6667 21.333Z" fill="#1D4F74"/>
</svg>
