<svg width="24" height="24" viewBox="0 0 24 24" fill="none" xmlns="http://www.w3.org/2000/svg">
<path d="M11.5 1C9.19265 1 7.27985 2.75704 7.0293 5H6C4.844 5 3.88172 5.8666 3.76172 7.0166L2.51172 19.0166C2.44572 19.6491 2.65213 20.2833 3.07813 20.7568C3.50413 21.2293 4.114 21.5 4.75 21.5H19.25C19.886 21.5 20.4959 21.2293 20.9219 20.7568C21.3479 20.2838 21.5533 19.6491 21.4873 19.0166L20.2383 7.0166C20.1183 5.8666 19.156 5 18 5H16.9766C16.9921 5.165 17 5.332 17 5.5V6.5H18C18.3855 6.5 18.7061 6.78935 18.7461 7.17285L19.9961 19.1729C20.0181 19.3839 19.9491 19.595 19.8076 19.752C19.6656 19.9095 19.462 20 19.25 20H4.75C4.538 20 4.33486 19.9099 4.19336 19.7529C4.05136 19.5954 3.98191 19.3839 4.00391 19.1729L5.25391 7.17285C5.29391 6.78935 5.6145 6.5 6 6.5H7V8.25C6.9986 8.34938 7.01696 8.44806 7.05402 8.54028C7.09108 8.63251 7.1461 8.71645 7.21588 8.78723C7.28567 8.858 7.36882 8.91421 7.46051 8.95257C7.55221 8.99093 7.65061 9.01068 7.75 9.01068C7.8494 9.01068 7.9478 8.99093 8.03949 8.95257C8.13119 8.91421 8.21434 8.858 8.28412 8.78723C8.35391 8.71645 8.40893 8.63251 8.44599 8.54028C8.48305 8.44806 8.50141 8.34938 8.5 8.25V5.5C8.5 3.83436 9.83436 2.5 11.5 2.5C12.9949 2.5 14.22 3.57554 14.4561 5H9.56641C9.52441 5.16 9.5 5.327 9.5 5.5V6.5H14.5V8.25C14.4986 8.34938 14.517 8.44806 14.554 8.54028C14.5911 8.63251 14.6461 8.71645 14.7159 8.78723C14.7857 8.858 14.8688 8.91421 14.9605 8.95257C15.0522 8.99093 15.1506 9.01068 15.25 9.01068C15.3494 9.01068 15.4478 8.99093 15.5395 8.95257C15.6312 8.91421 15.7143 8.858 15.7841 8.78723C15.8539 8.71645 15.9089 8.63251 15.946 8.54028C15.983 8.44806 16.0014 8.34938 16 8.25V5.5C16 3.02364 13.9764 1 11.5 1Z" fill="#1D4F74"/>
</svg>
