<svg width="16" height="16" viewBox="0 0 16 16" fill="none" xmlns="http://www.w3.org/2000/svg">
<path d="M7.66669 0.666748C6.12845 0.666748 4.85325 1.83811 4.68622 3.33341H4.00002C3.22936 3.33341 2.58784 3.91115 2.50784 4.67782L1.6745 12.6778C1.6305 13.0995 1.76811 13.5223 2.05211 13.838C2.33611 14.153 2.74269 14.3334 3.16669 14.3334H12.8334C13.2574 14.3334 13.6639 14.153 13.9479 13.838C14.2319 13.5226 14.3689 13.0995 14.3249 12.6778L13.4922 4.67782C13.4122 3.91115 12.7707 3.33341 12 3.33341H11.3177C11.3281 3.44341 11.3334 3.55475 11.3334 3.66675V4.33341H12C12.257 4.33341 12.4708 4.52632 12.4974 4.78198L13.3308 12.782C13.3454 12.9226 13.2994 13.0634 13.2051 13.168C13.1104 13.273 12.9747 13.3334 12.8334 13.3334H3.16669C3.02536 13.3334 2.88993 13.2734 2.7956 13.1687C2.70093 13.0637 2.65463 12.9226 2.66929 12.782L3.50263 4.78198C3.52929 4.52632 3.74302 4.33341 4.00002 4.33341H4.66669V5.50008C4.66575 5.56634 4.67799 5.63212 4.7027 5.6936C4.72741 5.75509 4.76409 5.81105 4.81061 5.85823C4.85713 5.90542 4.91257 5.94289 4.9737 5.96846C5.03483 5.99403 5.10043 6.0072 5.16669 6.0072C5.23295 6.0072 5.29855 5.99403 5.35968 5.96846C5.42081 5.94289 5.47625 5.90542 5.52277 5.85823C5.56929 5.81105 5.60597 5.75509 5.63068 5.6936C5.65539 5.63212 5.66763 5.56634 5.66669 5.50008V3.66675C5.66669 2.55632 6.55626 1.66675 7.66669 1.66675C8.66328 1.66675 9.48 2.38378 9.63739 3.33341H6.37763C6.34963 3.44008 6.33336 3.55141 6.33336 3.66675V4.33341H9.66669V5.50008C9.66575 5.56634 9.67799 5.63212 9.7027 5.6936C9.72741 5.75509 9.76409 5.81105 9.81061 5.85823C9.85713 5.90542 9.91257 5.94289 9.9737 5.96846C10.0348 5.99403 10.1004 6.0072 10.1667 6.0072C10.233 6.0072 10.2986 5.99403 10.3597 5.96846C10.4208 5.94289 10.4762 5.90542 10.5228 5.85823C10.5693 5.81105 10.606 5.75509 10.6307 5.6936C10.6554 5.63212 10.6676 5.56634 10.6667 5.50008V3.66675C10.6667 2.01584 9.3176 0.666748 7.66669 0.666748Z" fill="#1D4F74"/>
</svg>
