<svg width="29" height="24" viewBox="0 0 29 24" fill="none" xmlns="http://www.w3.org/2000/svg">
<path d="M5.51311 0.29595C5.34143 0.292626 5.17247 0.297467 5.0066 0.308971C4.34311 0.354986 3.73236 0.516403 3.22014 0.772512C1.21181 1.77668 -0.40124 4.97304 0.690193 9.88449C1.37983 12.9879 2.5724 16.0535 3.86858 18.473C4.51667 19.6828 5.18897 20.7297 5.86207 21.5512C6.53517 22.3726 7.16917 23.0003 8.01702 23.2829C8.04571 23.2925 8.07482 23.3007 8.10426 23.3077C8.10426 23.3077 11.0882 24.019 14.5444 23.5759C17.884 23.1477 21.7971 21.4653 23.698 17.098C25.8461 16.2326 27.4932 14.379 28.1707 12.1749C28.8897 9.83525 28.4708 7.05707 26.3738 4.96001C24.0595 2.64574 20.8213 2.59203 18.5834 4.03423C16.7346 5.22571 15.6457 7.50816 16.0378 10.0759C15.4125 9.98698 14.7325 9.89116 13.935 10.0108C12.9429 10.1596 11.8525 10.5799 10.9858 11.4861C10.4973 11.9967 10.1249 12.6869 9.83342 13.4848C8.82366 12.3251 7.83866 11.3413 7.1329 10.4001C6.2449 9.21612 6.19456 8.50578 6.24228 8.12407C6.25212 8.04529 6.25775 8.09013 6.26962 8.03814C6.6515 8.04407 7.11288 8.02787 7.62118 7.87538C8.18431 7.70644 8.80862 7.36869 9.27222 6.766C9.73583 6.16332 10.0001 5.33371 10.0001 4.33371C10.0001 3.30038 9.6644 2.40444 9.11077 1.7634C8.55714 1.12235 7.83058 0.745845 7.10816 0.539439C6.56635 0.384635 6.02816 0.305922 5.51311 0.29595ZM5.84514 2.34803C6.09195 2.36255 6.33656 2.39785 6.55868 2.46131C7.00293 2.58824 7.35971 2.79507 7.59775 3.07069C7.83578 3.34631 8.00009 3.70038 8.00009 4.33371C8.00009 5.00038 7.84768 5.33744 7.68629 5.54725C7.52489 5.75706 7.31587 5.87765 7.04566 5.95871C6.50524 6.12084 5.86337 6.01991 5.86337 6.01991C5.70188 5.98755 5.53489 5.99558 5.37725 6.04328C5.21961 6.09099 5.07619 6.17688 4.95972 6.29335C4.95972 6.29335 4.37685 6.92505 4.2579 7.87668C4.13895 8.82831 4.42194 10.118 5.53394 11.6006C6.77845 13.2602 8.26577 14.3683 9.50139 16.2217C9.61582 16.3931 9.78039 16.5249 9.97259 16.5992C10.1648 16.6735 10.3752 16.6866 10.5752 16.6367C10.7751 16.5868 10.9547 16.4764 11.0895 16.3206C11.2243 16.1647 11.3077 15.971 11.3282 15.766C11.4787 14.2611 11.9228 13.4002 12.4311 12.8689C12.9393 12.3375 13.5573 12.0911 14.2319 11.99C15.581 11.7876 16.9871 12.2725 16.9871 12.2725C17.1693 12.3397 17.3672 12.3524 17.5566 12.309C17.7459 12.2656 17.9185 12.168 18.0533 12.0281C18.1881 11.8882 18.2792 11.7121 18.3155 11.5212C18.3519 11.3304 18.3318 11.1331 18.2579 10.9535C17.2504 8.50682 18.1547 6.69099 19.6668 5.71652C21.1789 4.74206 23.274 4.68834 24.9597 6.37407C26.5447 7.95901 26.7927 9.84773 26.2579 11.5876C25.7231 13.3275 24.3373 14.8333 22.6837 15.3845C22.5437 15.4312 22.4157 15.5083 22.309 15.6102C22.2023 15.7122 22.1195 15.8366 22.0665 15.9743C20.5485 19.9212 17.333 21.2013 14.2892 21.5915C11.3086 21.9736 8.74242 21.3948 8.6342 21.3702C8.47446 21.312 7.95791 20.9528 7.40894 20.2829C6.85288 19.6043 6.23351 18.6513 5.6316 17.5277C4.42778 15.2806 3.28702 12.3462 2.64332 9.4496C1.68942 5.15704 3.45503 2.89074 4.11337 2.56157C4.26782 2.48435 4.65707 2.39577 5.11858 2.35845C5.34933 2.33979 5.59833 2.33352 5.84514 2.34803Z" fill="#1D4F74"/>
</svg>
