<svg width="16" height="16" viewBox="0 0 16 16" fill="none" xmlns="http://www.w3.org/2000/svg">
<g clip-path="url(#clip0_196_855)">
<path d="M7.99553 3C4.22232 3 0.897707 5.61531 0.0157082 9.04232C-0.0172712 9.17078 0.00213239 9.30709 0.0696504 9.42124C0.137168 9.5354 0.24727 9.61806 0.375734 9.65104C0.504198 9.68402 0.640502 9.66462 0.75466 9.5971C0.868818 9.52958 0.951479 9.41948 0.984458 9.29102C1.74446 6.33803 4.68873 4 7.99553 4C11.3023 4 14.2559 6.33885 15.0157 9.29102C15.0487 9.41948 15.1313 9.52958 15.2455 9.5971C15.3597 9.66462 15.496 9.68402 15.6244 9.65104C15.7529 9.61806 15.863 9.5354 15.9305 9.42124C15.998 9.30709 16.0174 9.17078 15.9845 9.04232C15.1022 5.61448 11.7687 3 7.99553 3ZM8.00073 5.66667C6.22738 5.66667 4.77938 7.11467 4.77938 8.88802C4.77938 10.6614 6.22738 12.11 8.00073 12.11C9.77409 12.11 11.2227 10.6614 11.2227 8.88802C11.2227 7.11467 9.77409 5.66667 8.00073 5.66667ZM8.00073 6.66667C9.23365 6.66667 10.2227 7.65511 10.2227 8.88802C10.2227 10.1209 9.23365 11.11 8.00073 11.11C6.76782 11.11 5.77938 10.1209 5.77938 8.88802C5.77938 7.65511 6.76782 6.66667 8.00073 6.66667Z" fill="#1D4F74"/>
</g>
<defs>
<clipPath id="clip0_196_855">
<rect width="16" height="16" fill="white"/>
</clipPath>
</defs>
</svg>
