<svg width="16" height="16" viewBox="0 0 16 16" fill="none" xmlns="http://www.w3.org/2000/svg">
<path d="M14.1574 1.32882C14.0275 1.33261 13.9042 1.38678 13.8136 1.47986L9.34227 5.95122C9.34067 5.95051 9.33932 5.94932 9.33772 5.94861L8.55126 6.73507C8.55308 6.73551 8.55465 6.73658 8.55647 6.73702L5.73746 9.55603C5.73696 9.55401 5.73599 9.5522 5.7355 9.55017L4.94904 10.3366C4.94983 10.3384 4.95086 10.3401 4.95165 10.3418L1.48029 13.8132C1.43231 13.8593 1.394 13.9145 1.36761 13.9755C1.34121 14.0366 1.32727 14.1023 1.3266 14.1688C1.32592 14.2353 1.33852 14.3013 1.36367 14.3629C1.38881 14.4245 1.42599 14.4804 1.47303 14.5275C1.52007 14.5745 1.57602 14.6117 1.63761 14.6369C1.6992 14.662 1.76518 14.6746 1.8317 14.6739C1.89822 14.6732 1.96394 14.6593 2.025 14.6329C2.08607 14.6065 2.14125 14.5682 2.18733 14.5202L5.50503 11.2025C6.11572 11.8947 7.00681 12.3334 8.00048 12.3334C9.83848 12.3334 11.3338 10.838 11.3338 9.00004C11.3338 8.00657 10.895 7.11537 10.203 6.5046L11.6847 5.02283C13.302 5.96975 14.5567 7.49899 15.0174 9.28976C15.0741 9.51643 15.2771 9.66671 15.5005 9.66671C15.5405 9.66671 15.5835 9.66312 15.6235 9.64978C15.8935 9.58312 16.0536 9.31033 15.9836 9.04366C15.4703 7.0428 14.1542 5.35774 12.4263 4.28129L14.5207 2.18689C14.5928 2.11664 14.642 2.02625 14.662 1.92755C14.6819 1.82885 14.6715 1.72643 14.6323 1.63371C14.593 1.54099 14.5267 1.46228 14.4419 1.40788C14.3572 1.35348 14.258 1.32592 14.1574 1.32882ZM7.99722 3.00004C4.27389 3.00004 0.917403 5.54033 0.0174033 9.04366C-0.0525967 9.31033 0.107429 9.58312 0.377429 9.64978C0.644096 9.71978 0.916883 9.55976 0.983549 9.28976C1.76022 6.27309 4.77722 4.00004 7.99722 4.00004C8.56722 4.00004 9.13032 4.06976 9.67365 4.20642L10.494 3.38676C9.6973 3.13343 8.85722 3.00004 7.99722 3.00004ZM8.00048 5.66671C6.16248 5.66671 4.66714 7.16204 4.66714 9.00004C4.66714 9.06571 4.67291 9.13036 4.67691 9.19536L5.91779 7.95447C6.14346 7.50714 6.50757 7.14303 6.9549 6.91736L8.19514 5.67648C8.13047 5.67248 8.06614 5.66671 8.00048 5.66671ZM9.49136 7.21619C10.0035 7.64382 10.3338 8.28195 10.3338 9.00004C10.3338 10.2864 9.28714 11.3334 8.00048 11.3334C7.28238 11.3334 6.64425 11.0031 6.21662 10.4909L7.16324 9.54432C7.25384 9.68396 7.37786 9.79878 7.52406 9.87836C7.67026 9.95794 7.83402 9.99977 8.00048 10C8.21569 9.99949 8.42498 9.92953 8.59726 9.80054C8.76953 9.67156 8.8956 9.49044 8.95673 9.28409C9.01786 9.07774 9.01079 8.85718 8.93656 8.65517C8.86234 8.45316 8.72493 8.28049 8.54475 8.16281L9.49136 7.21619Z" fill="#1D4F74"/>
</svg>
